<svg xmlns="http://www.w3.org/2000/svg" width="25" height="21" viewBox="0 0 25 21"><path d="M22 7.61c0-.83-.66-1.5-1.5-1.5h-5V3.66a.5.5 0 0 0-.5-.5h-1.52V1.64a.5.5 0 0 0-.5-.5H6.21L5.35.28a.5.5 0 0 0-.7 0L1.8 3.16H1a.5.5 0 0 0-.5.5v13.99c0 .27.23.49.5.49h2.02c.07.37.23.7.44.99h-.95a.5.5 0 0 0-.51.48c0 .28.21.5.49.5H5.5c1.19 0 2.18-.85 2.4-1.97h9.1c.08.37.24.7.45.99h-.97a.5.5 0 0 0-.5.48c0 .28.21.5.49.5h3.05c1.2 0 2.2-.87 2.43-2.01h2.03a.5.5 0 0 0 .5-.5v-6.55c0-1.5-1.08-2.74-2.48-2.98zm1.5 5.01H20V9.11h1.5a2 2 0 0 1 2 2zm-5.52-3.51h.98v3.51h-.98zm-5.48-6H8.28l-.99-.98h5.21zM5.64 1.96l1.14 1.15H3.2l1.79-1.79zm-2.2 7.15c.27 0 .5-.22.51-.49a.5.5 0 0 0-.49-.5H1.49v-.98h5.89a.5.5 0 0 0 .5-.49.5.5 0 0 0-.49-.5H1.5V4.14h12.98v11.01h-3.38c-.28-.03-.5.19-.5.47 0 .27.22.49.5.51h3.38v.98H7.93a2.5 2.5 0 0 0-4.89 0H1.49v-8zm.55 8.5c0-.82.67-1.5 1.5-1.5s1.5.68 1.5 1.5a1.5 1.5 0 1 1-3 0zm13.48-1.48c-.22.29-.37.62-.45.98H15.5v-.98zm.51 1.5a1.5 1.5 0 1 1 0 0zm3.98-.52a2.51 2.51 0 0 0-2.46-2.01h-4V7.14h4.98c.27 0 .5.22.5.5v.48H17.5a.5.5 0 0 0-.5.5v4.48c0 .28.22.5.5.5h6v3.51z"/><path d="M9.13 16.13h.3a.5.5 0 0 0 .5-.48c0-.28-.22-.5-.49-.5h-.29a.5.5 0 0 0-.5.48c-.01.28.2.5.48.5zM9.13 7.14h.3a.5.5 0 0 0 .5-.49.5.5 0 0 0-.49-.5h-.29c-.27 0-.5.22-.5.49-.01.27.2.5.48.5z"/></svg>