<svg xmlns="http://www.w3.org/2000/svg" width="30" height="30" viewBox="0 0 30 30"><path fill="#fff" d="M15.2 17.75a2.9 2.9 0 1 0 0-5.81 2.9 2.9 0 0 0 0 5.81zM21.56 11.28v-2.8h-.37l-2.44.01.01 2.8z"/><path fill="#fff" d="M23.47 19.91a3.2 3.2 0 0 1-3.2 3.2H10.13a3.2 3.2 0 0 1-3.19-3.2V9.77a3.2 3.2 0 0 1 3.19-3.19h10.14a3.2 3.2 0 0 1 3.2 3.19zM.67 14.84c0 8.02 6.52 14.54 14.53 14.54 8.02 0 14.54-6.52 14.54-14.54C29.74 6.83 23.22.31 15.2.31A14.55 14.55 0 0 0 .67 14.84z"/><path fill="#fff" d="M19.72 14.84a4.52 4.52 0 1 1-8.71-1.69H8.55v6.76c0 .88.71 1.59 1.58 1.59h10.14c.88 0 1.59-.71 1.59-1.59v-6.76h-2.47c.21.52.33 1.09.33 1.69z"/></svg>