<svg xmlns="http://www.w3.org/2000/svg" width="21" height="25" viewBox="0 0 21 25"><path fill="#fff" d="M14.03 7.85a.5.5 0 0 0 0-.7.5.5 0 0 0-.7 0l-6 6c-.2.19-.2.51 0 .7a.49.49 0 0 0 .7 0l6-6zM7.18 7.5a2 2 0 0 0 4 0 2 2 0 0 0-4 0zm1 0a1 1 0 0 1 2 0 1 1 0 0 1-2 0zM10.18 13.5a2 2 0 0 0 4 0 2 2 0 0 0-4 0zm1 0a1 1 0 0 1 2 0 1 1 0 0 1-2 0z"/><path fill="#fff" d="M20.53 8.76a2.5 2.5 0 0 0-.9-1.52 2.48 2.48 0 0 0-1.66-2.86 2.48 2.48 0 0 0-2.53-2.12 2.47 2.47 0 0 0-2.2-1.31c-.3 0-.62.06-.9.17a2.5 2.5 0 0 0-3.31 0 2.58 2.58 0 0 0-1.77-.02c-.58.21-1.05.62-1.34 1.16A2.47 2.47 0 0 0 3.4 4.38a2.5 2.5 0 0 0-1.66 2.86 2.52 2.52 0 0 0-.57 3.26 2.5 2.5 0 0 0 .57 3.26 2.48 2.48 0 0 0 1.66 2.86 2.5 2.5 0 0 0 2.53 2.12 2.47 2.47 0 0 0 2.2 1.31c.3 0 .62-.06.9-.17.46.4 1.05.62 1.66.62.62 0 1.2-.22 1.65-.62a2.57 2.57 0 0 0 1.77.02 2.47 2.47 0 0 0 1.34-1.16 2.48 2.48 0 0 0 2.53-2.12 2.5 2.5 0 0 0 1.66-2.86 2.52 2.52 0 0 0 .57-3.26 2.5 2.5 0 0 0 .33-1.74zm-1.73 4.35a.5.5 0 0 0-.22.61 1.5 1.5 0 0 1-1.16 2.01.5.5 0 0 0-.42.5c0 .45-.19.87-.53 1.16a1.49 1.49 0 0 1-1.24.33.5.5 0 0 0-.57.32c-.15.43-.48.76-.9.92-.42.15-.9.1-1.28-.12a.5.5 0 0 0-.64.11 1.5 1.5 0 0 1-2.32 0 .5.5 0 0 0-.38-.18.47.47 0 0 0-.26.07c-.38.22-.86.27-1.28.12a1.51 1.51 0 0 1-.9-.92.5.5 0 0 0-.56-.32l-.28.03c-.35 0-.7-.13-.96-.36a1.49 1.49 0 0 1-.54-1.16.5.5 0 0 0-.42-.5 1.5 1.5 0 0 1-1.16-2.01.5.5 0 0 0-.22-.61 1.51 1.51 0 0 1-.4-2.29.5.5 0 0 0 0-.65c-.3-.34-.42-.79-.34-1.23.08-.45.35-.83.74-1.05a.5.5 0 0 0 .22-.61 1.5 1.5 0 0 1 1.16-2.01.5.5 0 0 0 .42-.5c0-.45.2-.88.54-1.16a1.5 1.5 0 0 1 1.24-.33.5.5 0 0 0 .56-.33c.15-.42.48-.75.9-.91.42-.15.9-.11 1.28.12a.5.5 0 0 0 .64-.11 1.5 1.5 0 0 1 2.32 0 .5.5 0 0 0 .64.11 1.5 1.5 0 0 1 2.18.79.5.5 0 0 0 .57.33l.27-.03c.36 0 .7.13.97.36.34.28.54.71.53 1.16 0 .25.18.46.42.5a1.5 1.5 0 0 1 1.16 2.01.5.5 0 0 0 .22.61 1.49 1.49 0 0 1 .4 2.28.5.5 0 0 0 0 .65 1.51 1.51 0 0 1-.4 2.29z"/><path fill="#fff" d="M12.7 4.32a.5.5 0 0 0 .63-.32.5.5 0 0 0-.32-.63 7.5 7.5 0 0 0-9.82 6.72.5.5 0 0 0 .47.53h.03a.5.5 0 0 0 .5-.47 6.5 6.5 0 0 1 8.51-5.83zM17.7 10.38a.5.5 0 0 0-.53.47 6.5 6.5 0 0 1-8.51 5.83.5.5 0 0 0-.63.32.5.5 0 0 0 .32.63 7.42 7.42 0 0 0 3.88.21 7.51 7.51 0 0 0 5.94-6.93.5.5 0 0 0-.47-.53zM4.3 11.75a.5.5 0 1 0-.98.19l.1.42a.5.5 0 0 0 .48.37l.12-.01a.5.5 0 0 0 .36-.61l-.08-.36zM17.06 9.25a.5.5 0 0 0 .5.41l.09-.01a.5.5 0 0 0 .4-.59 7.03 7.03 0 0 0-.1-.42.5.5 0 0 0-.61-.36.5.5 0 0 0-.36.61l.08.36zM15.68 23.52H5.7a.5.5 0 0 0-.5.44c-.03.3.2.54.5.54h9.98a.5.5 0 0 0 .5-.45.5.5 0 0 0-.49-.53z"/></svg>