<svg xmlns="http://www.w3.org/2000/svg" width="81" height="98" viewBox="0 0 81 98"><path fill="#ca1f1f" d="M54.18 30.03a2.04 2.04 0 0 0-2.89-2.89l-24.5 24.5a2.04 2.04 0 0 0 2.89 2.89l24.5-24.5zM26.2 28.58a8.17 8.17 0 1 0 16.34 0 8.17 8.17 0 0 0-16.35 0zm4.07 0a4.09 4.09 0 1 1 8.18.01 4.09 4.09 0 0 1-8.18-.01zM38.44 53.08a8.17 8.17 0 1 0 16.35 0 8.17 8.17 0 0 0-16.35 0zm4.08 0a4.09 4.09 0 1 1 8.18.01 4.09 4.09 0 0 1-8.18-.01z"/><path fill="#ca1f1f" d="M80.7 33.74a10.17 10.17 0 0 0-3.69-6.2 10.2 10.2 0 0 0-6.75-11.7 10.19 10.19 0 0 0-10.34-8.67 10.18 10.18 0 0 0-12.69-4.62A10.15 10.15 0 0 0 40.48 0c-2.51 0-4.9.91-6.75 2.55a10.3 10.3 0 0 0-7.21-.09c-2.36.86-4.3 2.54-5.47 4.71a10.24 10.24 0 0 0-10.35 8.67 10.2 10.2 0 0 0-6.75 11.7 10.17 10.17 0 0 0-2.34 13.29 10.18 10.18 0 0 0 2.34 13.3 10.17 10.17 0 0 0 6.75 11.69 10.2 10.2 0 0 0 10.34 8.68 10.17 10.17 0 0 0 8.97 5.32c1.27 0 2.54-.24 3.72-.7a10.2 10.2 0 0 0 13.5 0 10.3 10.3 0 0 0 7.22.08c2.36-.86 4.29-2.53 5.47-4.7a10.2 10.2 0 0 0 10.34-8.68 10.17 10.17 0 0 0 6.75-11.69 10.17 10.17 0 0 0 2.35-13.3 10.15 10.15 0 0 0 1.34-7.09zm-7.06 17.75a2.04 2.04 0 0 0-.9 2.5 6.1 6.1 0 0 1-4.74 8.2 2.04 2.04 0 0 0-1.7 2.04 6.09 6.09 0 0 1-2.2 4.75 6.1 6.1 0 0 1-5.06 1.33 2.05 2.05 0 0 0-2.3 1.33 6.11 6.11 0 0 1-8.9 3.24 2.04 2.04 0 0 0-2.62.46 6.09 6.09 0 0 1-4.74 2.24 6.09 6.09 0 0 1-4.73-2.24 2.05 2.05 0 0 0-2.62-.46 6.12 6.12 0 0 1-8.9-3.24 2.05 2.05 0 0 0-2.3-1.33 6.15 6.15 0 0 1-7.26-6.08 2.04 2.04 0 0 0-1.7-2.04 6.12 6.12 0 0 1-4.74-8.2 2.04 2.04 0 0 0-.9-2.5 6.11 6.11 0 0 1-1.65-9.33c.65-.76.65-1.89 0-2.66a6.1 6.1 0 0 1 1.64-9.32c.88-.5 1.26-1.56.9-2.5a6.1 6.1 0 0 1 4.74-8.2c1-.17 1.72-1.03 1.71-2.04a6.1 6.1 0 0 1 7.26-6.09c.99.19 1.97-.38 2.3-1.33a6.12 6.12 0 0 1 8.9-3.24c.87.52 1.98.32 2.62-.46a6.11 6.11 0 0 1 9.47 0c.64.78 1.75.98 2.61.46a6.17 6.17 0 0 1 8.9 3.24 2.04 2.04 0 0 0 2.3 1.33 6.18 6.18 0 0 1 5.07 1.33 6.11 6.11 0 0 1 2.2 4.76 2.05 2.05 0 0 0 1.7 2.04 6.1 6.1 0 0 1 4.74 8.2c-.36.94.03 2 .9 2.5a6.1 6.1 0 0 1 1.65 9.32c-.66.77-.66 1.9 0 2.66a6.1 6.1 0 0 1-1.65 9.33z"/><path fill="#ca1f1f" d="M48.74 15.61A2.05 2.05 0 0 0 50 11.73a30.72 30.72 0 0 0-15.83-.87A30.68 30.68 0 0 0 9.9 39.17a2.05 2.05 0 0 0 1.93 2.15h.11c1.08 0 1.98-.84 2.04-1.93a26.52 26.52 0 0 1 34.76-23.78zM69.14 40.35a2.04 2.04 0 0 0-2.15 1.93 26.59 26.59 0 0 1-21.04 24.53c-4.55.95-9.3.7-13.72-.75a2.04 2.04 0 1 0-1.27 3.88 30.64 30.64 0 0 0 15.83.86 30.68 30.68 0 0 0 24.27-28.3 2.04 2.04 0 0 0-1.92-2.15zM14.43 45.92a2.05 2.05 0 0 0-2.4-1.62 2.05 2.05 0 0 0-1.6 2.4c.1.56.23 1.14.38 1.71a2.05 2.05 0 0 0 2.48 1.47 2.04 2.04 0 0 0 1.48-2.48c-.13-.5-.24-.99-.34-1.48zM66.53 35.75a2.05 2.05 0 0 0 2.4 1.61 2.04 2.04 0 0 0 1.61-2.39 30 30 0 0 0-.38-1.71 2.04 2.04 0 1 0-3.96 1c.13.5.24 1 .33 1.49zM60.9 93.92H20.07a2.04 2.04 0 1 0 0 4.08H60.9a2.04 2.04 0 1 0 0-4.08z"/></svg>