<svg xmlns="http://www.w3.org/2000/svg" width="95" height="61" viewBox="0 0 95 61"><path fill="#fff" d="M84.92 37.92v7.52h-7.64V29.08a7.74 7.74 0 0 1 7.96-7.73 7.73 7.73 0 0 1 .7 15.39 1.2 1.2 0 0 0-1.02 1.18zm0 12.85h-74.6v-3.01h74.6zm-4.48 7.41h-2.7v-4.86h3.59zm-65.64 0l-.88-4.86h3.59v4.86zM2.78 27.87A7.7 7.7 0 0 1 10 21.35a7.74 7.74 0 0 1 7.97 7.73v16.36h-7.64v-7.52c0-.59-.44-1.1-1.03-1.18a7.73 7.73 0 0 1-6.52-8.87zm71.95 17.57H20.29v-5.98a3.52 3.52 0 0 1 3.52-3.52h47.4a3.52 3.52 0 0 1 3.52 3.51zm1.19-42.62a4.83 4.83 0 0 1 4.83 4.83v12.09a10.11 10.11 0 0 0-6.02 9.2v5.62a6 6 0 0 0-3.56-1.16H23.85a6 6 0 0 0-3.56 1.16v-5.62c0-3.98-2.4-7.58-6.02-9.2V7.64c0-2.66 2.2-4.82 4.89-4.82zm7.15 16.13V7.71A7.21 7.21 0 0 0 75.85.5H19.16a7.21 7.21 0 0 0-7.21 7.21v11.24a10.12 10.12 0 0 0-11.7 7.96 10.2 10.2 0 0 0 7.53 11.94v13.28c0 .66.53 1.19 1.19 1.19h2.5l1.13 6.2c.1.57.6.98 1.17.98h4.87c.65 0 1.19-.53 1.19-1.19v-5.99h55.36v5.99c0 .66.53 1.19 1.2 1.19h4.85c.58 0 1.07-.41 1.18-.98l1.12-6.2h2.5c.67 0 1.2-.53 1.2-1.19V38.85a10.17 10.17 0 1 0-4.17-19.9z"/><path fill="#fff" d="M25.21 19.73h2.03v1.97c0 .61.44 1.16 1.05 1.21.69.06 1.26-.48 1.26-1.15v-2.03h1.97a1.2 1.2 0 0 0 1.22-1.06 1.16 1.16 0 0 0-1.16-1.26h-2.03v-1.97c0-.61-.44-1.16-1.05-1.21a1.16 1.16 0 0 0-1.26 1.15v2.03h-1.97a1.2 1.2 0 0 0-1.21 1.06c-.06.68.48 1.26 1.15 1.26zM63.67 19.73h2.02v1.97c0 .61.45 1.16 1.06 1.21.69.06 1.26-.48 1.26-1.15v-2.03h1.97a1.2 1.2 0 0 0 1.21-1.06 1.16 1.16 0 0 0-1.15-1.26H68v-1.97c0-.61-.45-1.16-1.06-1.21a1.16 1.16 0 0 0-1.26 1.15v2.03h-1.96c-.62 0-1.17.45-1.22 1.06-.06.68.48 1.26 1.16 1.26zM44.44 19.73h2.03v1.97c0 .61.44 1.16 1.05 1.21.69.06 1.26-.48 1.26-1.15v-2.03h1.97a1.2 1.2 0 0 0 1.21-1.06 1.16 1.16 0 0 0-1.15-1.26h-2.03v-1.97c0-.61-.44-1.16-1.05-1.21a1.16 1.16 0 0 0-1.26 1.15v2.03H44.5a1.2 1.2 0 0 0-1.21 1.06c-.06.68.48 1.26 1.15 1.26zM10.25 27.1a1.99 1.99 0 1 1-.01 3.97 1.99 1.99 0 0 1 0-3.97zm0-2.38a4.37 4.37 0 1 0 .01 8.74 4.37 4.37 0 0 0-.01-8.74zM82.92 29.09a1.99 1.99 0 1 1 3.98 0 1.99 1.99 0 0 1-3.98 0zm-2.38 0a4.37 4.37 0 1 0 8.74-.02 4.37 4.37 0 0 0-8.74.02z"/></svg>