<svg xmlns="http://www.w3.org/2000/svg" width="21" height="25" viewBox="0 0 21 25"><path d="M20.52 8.78a2.48 2.48 0 0 0-.9-1.52 2.48 2.48 0 0 0-1.65-2.86c-.1-.6-.4-1.15-.87-1.55a2.52 2.52 0 0 0-1.67-.58 2.5 2.5 0 0 0-3.1-1.13 2.5 2.5 0 0 0-3.31 0 2.57 2.57 0 0 0-1.77-.02 2.5 2.5 0 0 0-1.34 1.15A2.51 2.51 0 0 0 3.38 4.4a2.49 2.49 0 0 0-1.65 2.86 2.5 2.5 0 0 0-.58 3.26 2.47 2.47 0 0 0 .58 3.25 2.48 2.48 0 0 0 1.65 2.86c.09.6.4 1.15.87 1.55.46.39 1.06.59 1.66.58a2.5 2.5 0 0 0 3.11 1.13 2.5 2.5 0 0 0 3.3 0 2.57 2.57 0 0 0 1.77.02 2.5 2.5 0 0 0 1.34-1.15c.61.01 1.2-.19 1.67-.58.47-.4.78-.95.87-1.55a2.48 2.48 0 0 0 1.65-2.86 2.5 2.5 0 0 0 .57-3.25c.32-.52.44-1.14.33-1.74zm-.98 3.28c-.08.45-.35.83-.74 1.05a.5.5 0 0 0-.23.61 1.5 1.5 0 0 1-1.16 2.01.5.5 0 0 0-.42.5c0 .45-.19.87-.53 1.16a1.49 1.49 0 0 1-1.24.33.5.5 0 0 0-.57.32c-.15.43-.47.76-.9.92-.42.15-.9.1-1.28-.12a.5.5 0 0 0-.64.11 1.5 1.5 0 0 1-2.32 0 .5.5 0 0 0-.38-.18.47.47 0 0 0-.26.07c-.38.22-.85.27-1.27.12a1.51 1.51 0 0 1-.9-.92.5.5 0 0 0-.57-.32 1.5 1.5 0 0 1-1.24-.33 1.49 1.49 0 0 1-.54-1.16.5.5 0 0 0-.42-.5 1.5 1.5 0 0 1-1.16-2.01.5.5 0 0 0-.22-.61 1.51 1.51 0 0 1-.4-2.29.5.5 0 0 0 0-.65c-.3-.34-.42-.79-.34-1.23.08-.45.35-.83.74-1.05a.5.5 0 0 0 .23-.61 1.5 1.5 0 0 1 1.15-2.01.5.5 0 0 0 .42-.5c0-.45.2-.88.54-1.16a1.5 1.5 0 0 1 1.24-.33.5.5 0 0 0 .56-.33c.15-.42.48-.75.9-.91.43-.15.9-.11 1.28.12a.5.5 0 0 0 .64-.11 1.5 1.5 0 0 1 2.32 0 .5.5 0 0 0 .64.11 1.51 1.51 0 0 1 2.18.79.5.5 0 0 0 .57.33 1.49 1.49 0 0 1 1.24.33c.34.28.54.71.53 1.16 0 .25.18.46.42.5a1.5 1.5 0 0 1 1.16 2.01.5.5 0 0 0 .23.61 1.49 1.49 0 0 1 .4 2.28.5.5 0 0 0 0 .65c.3.35.42.8.34 1.24z"/><path d="M12.7 4.32a.5.5 0 1 0 .3-.95 7.5 7.5 0 0 0-9.82 6.72.5.5 0 0 0 .48.53h.02a.5.5 0 0 0 .5-.47 6.5 6.5 0 0 1 8.52-5.83zM17.69 10.38a.5.5 0 0 0-.53.47 6.5 6.5 0 0 1-8.5 5.83.5.5 0 0 0-.64.32.5.5 0 0 0 .32.63 7.42 7.42 0 0 0 3.88.21 7.51 7.51 0 0 0 5.94-6.93.5.5 0 0 0-.47-.53zM4.3 11.74a.5.5 0 0 0-.99.2l.1.42a.5.5 0 0 0 .48.37l.13-.01a.5.5 0 0 0 .36-.61 6.13 6.13 0 0 1-.09-.37zM17.05 9.25a.5.5 0 0 0 .5.41l.09-.01a.5.5 0 0 0 .4-.59 7.92 7.92 0 0 0-.1-.42.5.5 0 0 0-.6-.36.5.5 0 0 0-.37.61l.08.36zM15.67 23.52H5.68a.5.5 0 0 0-.5.44.5.5 0 0 0 .5.54h9.98a.5.5 0 0 0 .51-.45.5.5 0 0 0-.5-.53z"/><path d="M8.22 14.23c.08.07.19.1.29.1.09 0 .18-.02.26-.07l1.9-1.14 1.91 1.14c.17.1.39.09.55-.03a.49.49 0 0 0 .2-.51l-.5-2.17 1.67-1.46a.5.5 0 0 0-.28-.87L12 9.02l-.88-2.05a.5.5 0 0 0-.92 0l-.87 2.05-2.21.2a.5.5 0 0 0-.28.87l1.66 1.46-.49 2.17c-.04.19.04.4.2.51zm1.5-4.25a.48.48 0 0 0 .42-.3l.53-1.24.54 1.24c.07.17.23.29.41.3l1.35.13-1.02.89c-.14.12-.2.3-.16.48l.3 1.32-1.16-.69a.47.47 0 0 0-.26-.07.47.47 0 0 0-.25.07l-1.16.69.3-1.32A.49.49 0 0 0 9.4 11l-1.02-.89z"/></svg>