<svg xmlns="http://www.w3.org/2000/svg" width="31" height="31" viewBox="0 0 31 31"><path fill="#fff" d="M22.74 17.45c.69.67 1.42 1.31 2.04 2.06.27.33.53.67.73 1.05.29.55.03 1.15-.46 1.18h-3.04a2.36 2.36 0 0 1-1.94-.79c-.42-.43-.81-.88-1.22-1.33a2.73 2.73 0 0 0-.54-.48c-.42-.27-.78-.19-1.02.24-.24.44-.29.93-.32 1.42-.03.72-.25.91-.97.94a7.78 7.78 0 0 1-4.35-.94 9.7 9.7 0 0 1-2.93-2.74 37.06 37.06 0 0 1-3.85-6.87c-.25-.54-.07-.83.53-.84.99-.02 1.98-.02 2.98-.01.4.01.67.24.82.62.54 1.32 1.2 2.58 2.02 3.74.22.31.45.62.76.84.36.24.63.16.79-.23.11-.25.15-.52.18-.78.08-.92.09-1.84-.05-2.75-.09-.58-.41-.95-.98-1.05-.29-.06-.24-.17-.1-.33.24-.29.47-.47.93-.47h3.44c.54.11.66.35.73.9l.01 3.82c-.01.21.1.83.48.97.31.1.51-.14.69-.33a11.9 11.9 0 0 0 1.93-2.98c.24-.47.44-.96.63-1.45.15-.36.37-.54.78-.53h3.31l.29.02c.56.1.71.34.54.88-.27.86-.8 1.57-1.32 2.28-.55.77-1.14 1.51-1.69 2.27-.5.7-.46 1.06.17 1.67zM15.2.99a14.85 14.85 0 1 0 0 29.7 14.85 14.85 0 0 0 0-29.7z"/></svg>